<svg width="36" height="34" viewBox="0 0 36 34" fill="none" xmlns="http://www.w3.org/2000/svg">
<path d="M13.6362 32C14.4395 32 15.0907 31.3604 15.0907 30.5714C15.0907 29.7824 14.4395 29.1428 13.6362 29.1428C12.8329 29.1428 12.1816 29.7824 12.1816 30.5714C12.1816 31.3604 12.8329 32 13.6362 32Z" fill="#BFC2C8" stroke="#BFC2C8" stroke-width="1.5" stroke-linecap="round" stroke-linejoin="round"/>
<path d="M29.6362 32C30.4395 32 31.0907 31.3604 31.0907 30.5714C31.0907 29.7824 30.4395 29.1428 29.6362 29.1428C28.8329 29.1428 28.1816 29.7824 28.1816 30.5714C28.1816 31.3604 28.8329 32 29.6362 32Z" fill="#BFC2C8" stroke="#BFC2C8" stroke-width="1.5" stroke-linecap="round" stroke-linejoin="round"/>
<path d="M2 2H7.81818L11.7164 21.1286C11.8494 21.7863 12.2137 22.3771 12.7455 22.7976C13.2774 23.2181 13.9428 23.4414 14.6255 23.4286H28.7636C29.4463 23.4414 30.1117 23.2181 30.6436 22.7976C31.1754 22.3771 31.5397 21.7863 31.6727 21.1286L34 9.14287H9.27273" stroke="#BFC2C8" stroke-width="2" stroke-linecap="round" stroke-linejoin="round"/>
</svg>
