<svg width="40" height="40" viewBox="0 0 40 40" fill="none" xmlns="http://www.w3.org/2000/svg">
<path d="M16.3356 32.3619C19.8619 32.3619 23.1545 31.2257 25.8311 29.3319L35.9002 39.3056C36.3675 39.7685 36.9835 40 37.6208 40C39.0016 40 40 38.9479 40 37.6013C40 36.97 39.7876 36.3809 39.3202 35.9179L29.3149 25.9863C31.418 23.2509 32.6713 19.8632 32.6713 16.181C32.6713 7.28038 25.3213 0 16.3356 0C7.32873 0 0 7.28038 0 16.181C0 25.0815 7.32873 32.3619 16.3356 32.3619ZM16.3356 28.869C9.3043 28.869 3.52629 23.1247 3.52629 16.181C3.52629 9.23724 9.3043 3.4929 16.3356 3.4929C23.3457 3.4929 29.145 9.23724 29.145 16.181C29.145 23.1247 23.3457 28.869 16.3356 28.869Z" fill="#242424"/>
</svg>
