<svg width="27" height="25" viewBox="0 0 27 25" fill="none" xmlns="http://www.w3.org/2000/svg">
<path d="M23.6746 3.42011C23.0867 2.80197 22.3887 2.31161 21.6204 1.97706C20.8522 1.64251 20.0288 1.47032 19.1972 1.47032C18.3656 1.47032 17.5421 1.64251 16.7739 1.97706C16.0056 2.31161 15.3076 2.80197 14.7198 3.42011L13.4997 4.70237L12.2796 3.42011C11.0921 2.17209 9.48157 1.47096 7.80221 1.47096C6.12286 1.47096 4.51228 2.17209 3.3248 3.42011C2.13732 4.66812 1.4702 6.3608 1.4702 8.12576C1.4702 9.89072 2.13732 11.5834 3.3248 12.8314L4.54487 14.1137L13.4997 23.525L22.4545 14.1137L23.6746 12.8314C24.2627 12.2136 24.7293 11.48 25.0476 10.6726C25.366 9.86515 25.5298 8.99973 25.5298 8.12576C25.5298 7.25178 25.366 6.38636 25.0476 5.57895C24.7293 4.77154 24.2627 4.03796 23.6746 3.42011V3.42011Z" stroke="#BFC2C8" stroke-width="1.46667" stroke-linecap="round" stroke-linejoin="round"/>
</svg>
