<svg width="51" height="47" viewBox="0 0 51 47" fill="none" xmlns="http://www.w3.org/2000/svg">
<path d="M45.3736 5.7796C44.2253 4.58218 42.862 3.63231 41.3614 2.98424C39.8608 2.33618 38.2524 2.00262 36.6281 2.00262C35.0038 2.00262 33.3954 2.33618 31.8948 2.98424C30.3942 3.63231 29.0308 4.58218 27.8825 5.7796L25.4994 8.26349L23.1163 5.7796C20.7968 3.36204 17.6509 2.00387 14.3707 2.00387C11.0905 2.00387 7.94462 3.36204 5.62515 5.7796C3.30568 8.19715 2.00262 11.4761 2.00262 14.895C2.00262 18.3139 3.30568 21.5929 5.62515 24.0104L8.00826 26.4943L25.4994 44.7251L42.9905 26.4943L45.3736 24.0104C46.5225 22.8136 47.4338 21.3925 48.0556 19.8285C48.6773 18.2644 48.9974 16.588 48.9974 14.895C48.9974 13.202 48.6773 11.5256 48.0556 9.96154C47.4338 8.39749 46.5225 6.97645 45.3736 5.7796V5.7796Z" stroke="black" stroke-width="2" stroke-linecap="round" stroke-linejoin="round"/>
</svg>
