<svg width="36" height="35" viewBox="0 0 36 35" fill="none" xmlns="http://www.w3.org/2000/svg">
<path d="M31.5325 4.71116C30.7506 3.85164 29.8222 3.16981 28.8004 2.70462C27.7786 2.23943 26.6834 2 25.5774 2C24.4714 2 23.3762 2.23943 22.3544 2.70462C21.3326 3.16981 20.4042 3.85164 19.6223 4.71116L17.9996 6.49412L16.3769 4.71116C14.7975 2.97581 12.6554 2.0009 10.4218 2.0009C8.18818 2.0009 6.04607 2.97581 4.46668 4.71116C2.88729 6.4465 2 8.80014 2 11.2543C2 13.7084 2.88729 16.0621 4.46668 17.7974L6.0894 19.5804L17.9996 32.6667L29.9098 19.5804L31.5325 17.7974C32.3148 16.9383 32.9353 15.9183 33.3587 14.7956C33.7821 13.6729 34 12.4695 34 11.2543C34 10.039 33.7821 8.83569 33.3587 7.713C32.9353 6.59031 32.3148 5.57027 31.5325 4.71116Z" stroke="#BFC2C8" stroke-width="2" stroke-linecap="round" stroke-linejoin="round"/>
</svg>
