<svg width="23" height="22" viewBox="0 0 23 22" fill="none" xmlns="http://www.w3.org/2000/svg">
<path d="M10.1254 0.707185C10.4168 -0.235768 11.7515 -0.235769 12.0429 0.707184L13.9452 6.86311C14.0751 7.28358 14.4639 7.57033 14.9039 7.57033H21.1629C22.1227 7.57033 22.5348 8.78854 21.772 9.37124L16.6233 13.3046C16.2891 13.5599 16.1495 13.9965 16.2737 14.3983L18.2197 20.6956C18.5081 21.6291 17.4281 22.3824 16.6517 21.7893L11.6933 18.0014C11.3337 17.7267 10.8346 17.7267 10.475 18.0014L5.51657 21.7893C4.74018 22.3824 3.66018 21.6291 3.94863 20.6956L5.89463 14.3983C6.01879 13.9965 5.87924 13.5599 5.54505 13.3046L0.396266 9.37124C-0.366497 8.78854 0.0455738 7.57033 1.00544 7.57033H7.26436C7.70445 7.57033 8.09318 7.28358 8.22311 6.86311L10.1254 0.707185Z" fill="#FFBB56"/>
</svg>
